<?xml version="1.0" standalone="no"?>
<svg xmlns:xlink="http://www.w3.org/1999/xlink" id="wave" style="transform:rotate(0deg); transition: 0.3s" viewBox="0 0 1440 490" version="1.1" xmlns="http://www.w3.org/2000/svg"><defs><linearGradient id="sw-gradient-0" x1="0" x2="0" y1="1" y2="0"><stop stop-color="rgba(2, 255, 254, 1)" offset="0%"/><stop stop-color="rgba(11, 198, 255, 1)" offset="100%"/></linearGradient></defs><path style="transform:translate(0, 0px); opacity:1" fill="url(#sw-gradient-0)" d="M0,147L240,138.8C480,131,960,114,1440,130.7C1920,147,2400,196,2880,187.8C3360,180,3840,114,4320,147C4800,180,5280,310,5760,310.3C6240,310,6720,180,7200,147C7680,114,8160,180,8640,179.7C9120,180,9600,114,10080,89.8C10560,65,11040,82,11520,73.5C12000,65,12480,33,12960,32.7C13440,33,13920,65,14400,65.3C14880,65,15360,33,15840,81.7C16320,131,16800,261,17280,302.2C17760,343,18240,294,18720,277.7C19200,261,19680,278,20160,245C20640,212,21120,131,21600,130.7C22080,131,22560,212,23040,277.7C23520,343,24000,392,24480,359.3C24960,327,25440,212,25920,179.7C26400,147,26880,196,27360,245C27840,294,28320,343,28800,302.2C29280,261,29760,131,30240,65.3C30720,0,31200,0,31680,16.3C32160,33,32640,65,33120,106.2C33600,147,34080,196,34320,220.5L34560,245L34560,490L34320,490C34080,490,33600,490,33120,490C32640,490,32160,490,31680,490C31200,490,30720,490,30240,490C29760,490,29280,490,28800,490C28320,490,27840,490,27360,490C26880,490,26400,490,25920,490C25440,490,24960,490,24480,490C24000,490,23520,490,23040,490C22560,490,22080,490,21600,490C21120,490,20640,490,20160,490C19680,490,19200,490,18720,490C18240,490,17760,490,17280,490C16800,490,16320,490,15840,490C15360,490,14880,490,14400,490C13920,490,13440,490,12960,490C12480,490,12000,490,11520,490C11040,490,10560,490,10080,490C9600,490,9120,490,8640,490C8160,490,7680,490,7200,490C6720,490,6240,490,5760,490C5280,490,4800,490,4320,490C3840,490,3360,490,2880,490C2400,490,1920,490,1440,490C960,490,480,490,240,490L0,490Z"/></svg>